<svg xmlns="http://www.w3.org/2000/svg" width="594" height="594" viewBox="0 0 594 594">
    <g fill="#F6F8EC" fill-rule="nonzero">
        <path d="M409.756 263.378H302.43l14.288 44.814h107.326zM456.718 372.639h-119.51l15.507 48.585h119.51zM269.092 158.444l15.395 48.585H401.56l-15.506-48.585zM276.623 372.417l14.067 48.807h50.95l-15.507-48.807z"/>
        <path d="M203.854 362.655h69.447v-.221h49.62l-64.794-203.99h-50.285l-84.399 262.78h49.399l17.5-58.569 12.848-43.038 29.019-96.393h.664l28.133 96.393h-44.082z"/>
        <path d="M297 594c-79.348 0-153.93-30.919-210.006-86.994C30.92 450.93 0 376.348 0 297c0-79.348 30.919-153.93 86.994-210.006C143.07 30.92 217.652 0 297 0c79.348 0 153.93 30.919 210.006 86.994 14.598 14.599 27.491 30.451 38.578 47.316a294.142 294.142 0 0 1 21.3 38.345C584.643 211.135 594 253.346 594 297c0 79.348-30.919 153.93-86.994 210.006C450.93 563.08 376.348 594 297 594zm0-571.836c-73.363 0-142.405 28.592-194.38 80.456C50.756 154.484 22.164 223.526 22.164 297c0 73.474 28.592 142.405 80.456 194.38 51.864 51.864 120.906 80.456 194.38 80.456 73.474 0 142.405-28.592 194.38-80.456 51.975-51.864 80.456-120.906 80.456-194.38 0-73.474-28.592-142.516-80.456-194.38C439.516 50.756 370.474 22.164 297 22.164z"/>
    </g>
</svg>
